<svg width="135" height="52" viewBox="0 0 135 52" fill="none" xmlns="http://www.w3.org/2000/svg">
<g clip-path="url(#clip0_0_23)">
<path d="M0 0H39.7736V18.0053H19.3321V19.76H50.4858V52H0V0ZM32.9813 11.8958V6.17583H19.3321V11.8958H32.9813ZM43.6934 44.5917V32.4369H25.7976V44.5917H43.6934ZM42.1904 0H56.1664V11.8958H58.5832V0H72.5592V18.0053H42.1882V0H42.1904ZM52.9026 19.76H72.5615V30.68H52.9026V19.76ZM52.9026 32.4347H72.5615V52H52.9026V32.4347ZM74.9783 0H95.2908V25.6106H103.715V52H74.9783V0ZM97.7076 0H135V23.4H126.64V52H106.132V23.4H97.7076V0Z" fill="white"/>
</g>
<defs>
<clipPath id="clip0_0_23">
<rect width="135" height="52" fill="white"/>
</clipPath>
</defs>
</svg>
