<svg width="184" height="208" viewBox="0 0 184 208" fill="none" xmlns="http://www.w3.org/2000/svg">
<g clip-path="url(#clip0_0_90)" filter="url(#filter0_d_0_90)">
<path d="M65.6336 154.006H5.52786V170.859H14.2519" stroke="white" stroke-width="4" stroke-linecap="round" stroke-linejoin="round"/>
<path d="M117.252 154.006H178.038V170.859H171.483" stroke="white" stroke-width="4" stroke-linecap="round" stroke-linejoin="round"/>
<path d="M91.0952 127.883C121.515 127.883 146.174 103.277 146.174 72.9243C146.174 42.5716 121.515 17.9658 91.0952 17.9658C60.6759 17.9658 36.0161 42.5716 36.0161 72.9243C36.0161 103.277 60.6759 127.883 91.0952 127.883Z" stroke="white" stroke-width="4" stroke-linecap="round" stroke-linejoin="round"/>
<path d="M91.0951 75.8669C92.7237 75.8669 94.0439 74.5496 94.0439 72.9246C94.0439 71.2996 92.7237 69.9823 91.0951 69.9823C89.4666 69.9823 88.1464 71.2996 88.1464 72.9246C88.1464 74.5496 89.4666 75.8669 91.0951 75.8669Z" stroke="white" stroke-width="4" stroke-linecap="round" stroke-linejoin="round"/>
<path d="M91.0952 69.982V17.9658" stroke="white" stroke-width="4" stroke-linecap="round" stroke-linejoin="round"/>
<path d="M91.0952 127.883V75.8673" stroke="white" stroke-width="4" stroke-linecap="round" stroke-linejoin="round"/>
<path d="M93.1807 70.8441L130.04 34.0654" stroke="white" stroke-width="4" stroke-linecap="round" stroke-linejoin="round"/>
<path d="M52.1504 111.784L89.0099 75.0049" stroke="white" stroke-width="4" stroke-linecap="round" stroke-linejoin="round"/>
<path d="M94.0439 72.9248H146.174" stroke="white" stroke-width="4" stroke-linecap="round" stroke-linejoin="round"/>
<path d="M36.0161 72.9248H88.1465" stroke="white" stroke-width="4" stroke-linecap="round" stroke-linejoin="round"/>
<path d="M93.1807 75.0049L130.04 111.784" stroke="white" stroke-width="4" stroke-linecap="round" stroke-linejoin="round"/>
<path d="M52.1504 34.0654L89.0099 70.8441" stroke="white" stroke-width="4" stroke-linecap="round" stroke-linejoin="round"/>
<path d="M94.0439 72.9248H146.174" stroke="white" stroke-width="4" stroke-linecap="round" stroke-linejoin="round"/>
<path d="M36.0161 72.9248H88.1465" stroke="white" stroke-width="4" stroke-linecap="round" stroke-linejoin="round"/>
<path d="M91.0953 136.26C126.151 136.26 154.57 107.904 154.57 72.9245C154.57 37.9452 126.151 9.58887 91.0953 9.58887C56.0392 9.58887 27.6206 37.9452 27.6206 72.9245C27.6206 107.904 56.0392 136.26 91.0953 136.26Z" stroke="white" stroke-width="4" stroke-linecap="round" stroke-linejoin="round"/>
<path d="M95.1365 1.52454H87.0541V9.58917H95.1365V1.52454Z" stroke="white" stroke-width="4" stroke-linecap="round" stroke-linejoin="round"/>
<path d="M13.6102 69.2432H5.52783V77.3078H13.6102V69.2432Z" stroke="white" stroke-width="4" stroke-linecap="round" stroke-linejoin="round"/>
<path d="M27.6208 63.1904H13.6104V83.3596H27.6208V63.1904Z" stroke="white" stroke-width="4" stroke-linecap="round" stroke-linejoin="round"/>
<path d="M168.153 77.3076H176.235V69.243H168.153V77.3076Z" stroke="white" stroke-width="4" stroke-linecap="round" stroke-linejoin="round"/>
<path d="M154.142 83.3602H168.153V63.191H154.142V83.3602Z" stroke="white" stroke-width="4" stroke-linecap="round" stroke-linejoin="round"/>
<path d="M32.5634 198.468C43.3768 198.468 52.1428 189.721 52.1428 178.931C52.1428 168.141 43.3768 159.395 32.5634 159.395C21.7499 159.395 12.9839 168.141 12.9839 178.931C12.9839 189.721 21.7499 198.468 32.5634 198.468Z" stroke="white" stroke-width="4" stroke-linecap="round" stroke-linejoin="round"/>
<path d="M152.606 198.468C163.42 198.468 172.186 189.721 172.186 178.931C172.186 168.141 163.42 159.395 152.606 159.395C141.793 159.395 133.027 168.141 133.027 178.931C133.027 189.721 141.793 198.468 152.606 198.468Z" stroke="white" stroke-width="4" stroke-linecap="round" stroke-linejoin="round"/>
<path d="M90.9732 148.068C55.1603 148.068 26.1235 119.095 26.1235 83.3602H15.9327C15.9327 124.712 49.5302 158.236 90.9732 158.236C132.416 158.236 166.014 124.712 166.014 83.3602H155.823C155.823 119.095 126.786 148.068 90.9732 148.068Z" stroke="white" stroke-width="4" stroke-linecap="round" stroke-linejoin="round"/>
<path d="M134.494 170.859H131.95" stroke="white" stroke-width="4" stroke-linecap="round" stroke-linejoin="round"/>
<path d="M87.3824 170.859H51.4396" stroke="white" stroke-width="4" stroke-linecap="round" stroke-linejoin="round"/>
<path d="M131.186 162.429H88.1465V187.682H131.186V162.429Z" stroke="white" stroke-width="3" stroke-linecap="round" stroke-linejoin="round"/>
<path d="M93.1961 168.671V181.774" stroke="white" stroke-width="3" stroke-linecap="round" stroke-linejoin="round"/>
<path d="M98.1082 168.671V181.774" stroke="white" stroke-width="3" stroke-linecap="round" stroke-linejoin="round"/>
<path d="M103.608 168.671V181.774" stroke="white" stroke-width="3" stroke-linecap="round" stroke-linejoin="round"/>
<path d="M108.658 168.671V181.774" stroke="white" stroke-width="3" stroke-linecap="round" stroke-linejoin="round"/>
<path d="M126.35 168.671H113.211V181.782H126.35V168.671Z" stroke="white" stroke-width="3" stroke-linecap="round" stroke-linejoin="round"/>
<path d="M113.211 168.671L126.343 181.774" stroke="white" stroke-width="3" stroke-linecap="round" stroke-linejoin="round"/>
<path d="M126.343 168.671L113.211 181.774" stroke="white" stroke-width="3" stroke-linecap="round" stroke-linejoin="round"/>
<path d="M152.607 192.187C159.944 192.187 165.891 186.252 165.891 178.931C165.891 171.611 159.944 165.676 152.607 165.676C145.27 165.676 139.322 171.611 139.322 178.931C139.322 186.252 145.27 192.187 152.607 192.187Z" stroke="white" stroke-width="4" stroke-linecap="round" stroke-linejoin="round"/>
<path d="M32.5632 192.187C39.9001 192.187 45.8479 186.252 45.8479 178.931C45.8479 171.611 39.9001 165.676 32.5632 165.676C25.2263 165.676 19.2785 171.611 19.2785 178.931C19.2785 186.252 25.2263 192.187 32.5632 192.187Z" stroke="white" stroke-width="4" stroke-linecap="round" stroke-linejoin="round"/>
<path d="M32.5634 181.386C33.9219 181.386 35.0232 180.288 35.0232 178.932C35.0232 177.576 33.9219 176.478 32.5634 176.478C31.2048 176.478 30.1035 177.576 30.1035 178.932C30.1035 180.288 31.2048 181.386 32.5634 181.386Z" stroke="white" stroke-width="4" stroke-linecap="round" stroke-linejoin="round"/>
<path d="M152.607 181.386C153.965 181.386 155.067 180.288 155.067 178.932C155.067 177.576 153.965 176.478 152.607 176.478C151.248 176.478 150.147 177.576 150.147 178.932C150.147 180.288 151.248 181.386 152.607 181.386Z" stroke="white" stroke-width="4" stroke-linecap="round" stroke-linejoin="round"/>
</g>
<defs>
<filter id="filter0_d_0_90" x="0" y="0" width="183.566" height="208" filterUnits="userSpaceOnUse" color-interpolation-filters="sRGB">
<feFlood flood-opacity="0" result="BackgroundImageFix"/>
<feColorMatrix in="SourceAlpha" type="matrix" values="0 0 0 0 0 0 0 0 0 0 0 0 0 0 0 0 0 0 127 0" result="hardAlpha"/>
<feOffset dy="4"/>
<feGaussianBlur stdDeviation="2"/>
<feComposite in2="hardAlpha" operator="out"/>
<feColorMatrix type="matrix" values="0 0 0 0 0 0 0 0 0 0 0 0 0 0 0 0 0 0 0.25 0"/>
<feBlend mode="normal" in2="BackgroundImageFix" result="effect1_dropShadow_0_90"/>
<feBlend mode="normal" in="SourceGraphic" in2="effect1_dropShadow_0_90" result="shape"/>
</filter>
<clipPath id="clip0_0_90">
<rect width="175.566" height="200" fill="white" transform="translate(4)"/>
</clipPath>
</defs>
</svg>
