<svg width="250" height="162" viewBox="0 0 250 162" fill="none" xmlns="http://www.w3.org/2000/svg">
<g clip-path="url(#clip0_0_129)">
<path d="M201.86 28.1853L165.304 2.84528L38.3022 2.8595" stroke="white" stroke-width="4" stroke-linecap="round" stroke-linejoin="round"/>
<path d="M201.86 89.7499V28.1854L79.7276 29.7078L38.3022 2.85953V36.8787" stroke="white" stroke-width="4" stroke-linecap="round" stroke-linejoin="round"/>
<path d="M79.7273 29.7082L78.2224 153.62" stroke="white" stroke-width="4" stroke-linecap="round" stroke-linejoin="round"/>
<path d="M26.3201 66.231H2.83914V89.7641H26.3201V66.231Z" stroke="white" stroke-width="4" stroke-linecap="round" stroke-linejoin="round"/>
<path d="M212.095 135.621H188.615V159.154H212.095V135.621Z" stroke="white" stroke-width="4" stroke-linecap="round" stroke-linejoin="round"/>
<path d="M215.346 90.1339H191.865V113.667H215.346V90.1339Z" stroke="white" stroke-width="4" stroke-linecap="round" stroke-linejoin="round"/>
<path d="M177.399 117.125H161.045V133.516H177.399V117.125Z" stroke="white" stroke-width="4" stroke-linecap="round" stroke-linejoin="round"/>
<path d="M247.161 75.2803H230.806V91.671H247.161V75.2803Z" stroke="white" stroke-width="4" stroke-linecap="round" stroke-linejoin="round"/>
<path d="M45.1165 36.8795H28.2369V53.7966H45.1165V36.8795Z" stroke="white" stroke-width="4" stroke-linecap="round" stroke-linejoin="round"/>
<path d="M201.86 135.621V113.667" stroke="white" stroke-width="4" stroke-linecap="round" stroke-linejoin="round"/>
<path d="M37.9045 53.7963L36.8824 114.536L78.2225 153.62H188.614" stroke="white" stroke-width="4" stroke-linecap="round" stroke-linejoin="round"/>
</g>
<defs>
<clipPath id="clip0_0_129">
<rect width="250" height="162" fill="white"/>
</clipPath>
</defs>
</svg>
