<svg width="220" height="165" viewBox="0 0 220 165" fill="none" xmlns="http://www.w3.org/2000/svg">
<path d="M67.2545 151.823C58.1763 151.823 49.3682 150.055 41.0748 146.569C33.0654 143.202 25.874 138.383 19.6978 132.244C13.5217 126.106 8.67307 118.956 5.28563 110.997C1.77844 102.754 0 93.9989 0 84.9756C0 75.9524 1.77844 67.1976 5.28563 58.9544C8.67307 50.9935 13.5217 43.8456 19.6978 37.7069C25.874 31.5681 33.0654 26.7488 41.0748 23.3819C49.3669 19.8959 58.175 18.1283 67.2545 18.1283C76.3339 18.1283 85.1408 19.8959 93.4329 23.3819C101.442 26.7488 108.634 31.5681 114.81 37.7069C120.986 43.8456 125.835 50.9935 129.222 58.9544C132.729 67.1963 134.508 75.9511 134.508 84.9756C134.508 94.0001 132.729 102.754 129.222 110.997C125.835 118.958 120.986 126.106 114.81 132.244C108.634 138.383 101.442 143.202 93.4329 146.569C85.1408 150.055 76.3327 151.823 67.2545 151.823ZM67.2545 21.927C58.6897 21.927 50.3835 23.5934 42.564 26.8805C35.0107 30.0562 28.227 34.6021 22.4012 40.3926C16.5754 46.1831 12.0006 52.9258 8.80683 60.4334C5.49965 68.2055 3.82313 76.4614 3.82313 84.9744C3.82313 93.4873 5.49965 101.743 8.80683 109.515C12.0019 117.023 16.5754 123.766 22.4012 129.556C28.227 135.347 35.0107 139.894 42.564 143.068C50.3835 146.355 58.6897 148.022 67.2545 148.022C75.8193 148.022 84.1254 146.355 91.9449 143.068C99.4982 139.892 106.282 135.347 112.108 129.556C117.934 123.766 122.508 117.023 125.702 109.515C129.009 101.743 130.686 93.4873 130.686 84.9744C130.686 76.4614 129.009 68.2055 125.702 60.4334C122.507 52.9258 117.934 46.1831 112.108 40.3926C106.282 34.6021 99.4982 30.055 91.9449 26.8805C84.1254 23.5934 75.8193 21.927 67.2545 21.927Z" fill="white"/>
<path d="M67.253 140.493C59.7134 140.493 52.3983 139.026 45.5108 136.13C38.8593 133.333 32.8865 129.331 27.7573 124.233C22.6282 119.135 18.6015 113.198 15.7876 106.587C12.8748 99.7409 11.3981 92.4701 11.3981 84.976C11.3981 77.482 12.8748 70.2112 15.7876 63.3653C18.6015 56.754 22.6282 50.8172 27.7573 45.7191C32.8865 40.6209 38.8593 36.6186 45.5108 33.8217C52.3983 30.9265 59.7134 29.4587 67.253 29.4587C74.7925 29.4587 82.1076 30.9265 88.9951 33.8217C95.6466 36.6186 101.619 40.6209 106.749 45.7191C111.878 50.8172 115.904 56.754 118.718 63.3653C121.631 70.2112 123.108 77.482 123.108 84.976C123.108 92.4701 121.631 99.7409 118.718 106.587C115.904 113.198 111.878 119.135 106.749 124.233C101.619 129.331 95.6466 133.333 88.9951 136.13C82.1076 139.026 74.7925 140.493 67.253 140.493ZM67.253 33.2417C60.2259 33.2417 53.4094 34.6098 46.9939 37.3058C40.7965 39.911 35.2297 43.6423 30.4494 48.3936C25.6691 53.145 21.9152 58.6782 19.2942 64.8381C16.5805 71.2149 15.2053 77.9902 15.2053 84.9748C15.2053 91.9594 16.5818 98.7346 19.2942 105.111C21.9152 111.271 25.6691 116.805 30.4494 121.556C35.2297 126.307 40.7965 130.039 46.9939 132.644C53.4094 135.341 60.2259 136.708 67.253 136.708C74.28 136.708 81.0965 135.34 87.512 132.644C93.7094 130.039 99.2762 126.307 104.057 121.556C108.837 116.805 112.591 111.271 115.212 105.111C117.925 98.7346 119.301 91.9594 119.301 84.9748C119.301 77.9902 117.924 71.2149 115.212 64.8381C112.591 58.6782 108.837 53.145 104.057 48.3936C99.2762 43.6423 93.7094 39.911 87.512 37.3058C81.0965 34.6086 74.28 33.2417 67.253 33.2417Z" fill="white"/>
<path d="M67.2534 113.3C59.6419 113.3 52.4848 110.354 47.1025 105.004C41.7201 99.6545 38.756 92.5407 38.756 84.9752C38.756 77.4097 41.7201 70.2959 47.1025 64.9461C52.4848 59.5963 59.6419 56.6501 67.2534 56.6501C74.8649 56.6501 82.0219 59.5963 87.4043 64.9461C92.7866 70.2959 95.7508 77.4097 95.7508 84.9752C95.7508 92.5407 92.7866 99.6545 87.4043 105.004C82.0219 110.354 74.8649 113.3 67.2534 113.3ZM67.2534 60.4341C53.6388 60.4341 42.563 71.4429 42.563 84.9752C42.563 98.5076 53.6388 109.515 67.2534 109.515C80.868 109.515 91.9425 98.5063 91.9425 84.9752C91.9425 71.4441 80.8667 60.4341 67.2534 60.4341Z" fill="white"/>
<path d="M67.2536 95.173C61.5966 95.173 56.9946 90.5987 56.9946 84.9759C56.9946 79.3531 61.5966 74.7789 67.2536 74.7789C72.9106 74.7789 77.5127 79.3531 77.5127 84.9759C77.5127 90.5987 72.9106 95.173 67.2536 95.173ZM67.2536 78.4186C63.6162 78.4186 60.6576 81.3593 60.6576 84.9747C60.6576 88.5902 63.6162 91.5308 67.2536 91.5308C70.8911 91.5308 73.8496 88.5902 73.8496 84.9747C73.8496 81.3593 70.8911 78.4186 67.2536 78.4186Z" fill="white"/>
<path d="M177.254 164.286C165.836 164.286 155.102 159.866 147.028 151.841C138.955 143.817 134.508 133.147 134.508 121.798C134.508 110.449 138.955 99.7796 147.028 91.755C155.102 83.7303 165.836 79.3104 177.254 79.3104C188.672 79.3104 199.407 83.7303 207.48 91.755C215.553 99.7796 220 110.449 220 121.798C220 133.147 215.553 143.817 207.48 151.841C199.407 159.866 188.672 164.286 177.254 164.286ZM177.254 83.1129C166.858 83.1129 157.085 87.1372 149.734 94.4429C142.382 101.75 138.335 111.463 138.335 121.797C138.335 132.13 142.384 141.844 149.734 149.151C157.085 156.458 166.859 160.481 177.254 160.481C187.649 160.481 197.423 156.457 204.774 149.151C212.126 141.844 216.173 132.129 216.173 121.797C216.173 111.465 212.125 101.75 204.774 94.4429C197.424 87.136 187.65 83.1129 177.254 83.1129Z" fill="white"/>
<path d="M177.823 155.222C168.689 155.222 160.102 151.746 153.642 145.433C147.183 139.119 143.626 130.726 143.626 121.799C143.626 112.871 147.183 104.478 153.642 98.1648C160.102 91.8515 168.689 88.3751 177.823 88.3751C186.957 88.3751 195.545 91.8515 202.004 98.1648C208.463 104.478 212.02 112.871 212.02 121.799C212.02 130.726 208.463 139.119 202.004 145.433C195.545 151.746 186.957 155.222 177.823 155.222ZM177.823 92.1305C169.715 92.1305 162.092 95.2165 156.358 100.82C150.625 106.424 147.467 113.875 147.467 121.799C147.467 129.723 150.625 137.175 156.358 142.779C162.092 148.382 169.715 151.468 177.823 151.468C185.932 151.468 193.555 148.382 199.287 142.779C205.02 137.175 208.178 129.724 208.178 121.799C208.178 113.874 205.02 106.423 199.287 100.82C193.554 95.2165 185.93 92.1305 177.823 92.1305Z" fill="white"/>
<path d="M177.823 140.493C167.767 140.493 159.585 132.106 159.585 121.798C159.585 111.49 167.767 103.104 177.823 103.104C187.88 103.104 196.062 111.49 196.062 121.798C196.062 132.106 187.88 140.493 177.823 140.493ZM177.823 106.952C169.837 106.952 163.339 113.612 163.339 121.798C163.339 129.985 169.837 136.645 177.823 136.645C185.81 136.645 192.307 129.985 192.307 121.798C192.307 113.612 185.81 106.952 177.823 106.952Z" fill="white"/>
<path d="M177.254 129.163C173.17 129.163 169.845 125.86 169.845 121.799C169.845 117.737 173.168 114.434 177.254 114.434C181.341 114.434 184.664 117.737 184.664 121.799C184.664 125.86 181.341 129.163 177.254 129.163ZM177.254 118.239C175.28 118.239 173.672 119.836 173.672 121.8C173.672 123.764 175.278 125.36 177.254 125.36C179.23 125.36 180.837 123.764 180.837 121.8C180.837 119.836 179.23 118.239 177.254 118.239Z" fill="white"/>
<path d="M164.715 73.6454C154.819 73.6454 145.516 69.815 138.519 62.8602C131.522 55.9054 127.668 46.6589 127.668 36.8233C127.668 26.9878 131.522 17.7413 138.519 10.7865C145.515 3.83037 154.819 0 164.715 0C174.61 0 183.913 3.83037 190.91 10.7852C197.908 17.7401 201.761 26.9865 201.761 36.8221C201.761 46.6576 197.908 55.9041 190.91 62.8589C183.913 69.8138 174.61 73.6441 164.715 73.6441V73.6454ZM164.715 3.80879C155.842 3.80879 147.501 7.24304 141.228 13.478C134.955 19.713 131.5 28.0035 131.5 36.8221C131.5 45.6407 134.955 53.9311 141.228 60.1661C147.501 66.4011 155.842 69.8354 164.715 69.8354C173.587 69.8354 181.928 66.4011 188.201 60.1661C194.474 53.9311 197.929 45.6407 197.929 36.8221C197.929 28.0035 194.474 19.713 188.201 13.478C181.928 7.24304 173.587 3.80879 164.715 3.80879Z" fill="white"/>
<path d="M164.145 66.8473C155.924 66.8473 148.195 63.6656 142.383 57.8871C136.57 52.1086 133.368 44.4272 133.368 36.2561C133.368 28.085 136.569 20.4023 142.383 14.6251C148.196 8.84788 155.924 5.66495 164.145 5.66495C172.366 5.66495 180.095 8.84661 185.908 14.6251C191.721 20.4023 194.922 28.085 194.922 36.2561C194.922 44.4272 191.721 52.1099 185.908 57.8871C180.094 63.6644 172.366 66.8473 164.145 66.8473ZM164.145 9.47077C149.286 9.47077 137.197 21.487 137.197 36.2561C137.197 51.0252 149.286 63.0415 164.145 63.0415C179.004 63.0415 191.093 51.0252 191.093 36.2561C191.093 21.487 179.004 9.47077 164.145 9.47077Z" fill="white"/>
<path d="M164.144 41.9215C161.002 41.9215 158.445 39.6344 158.445 36.823C158.445 34.0116 161.002 31.7245 164.144 31.7245C167.287 31.7245 169.844 34.0116 169.844 36.823C169.844 39.6344 167.287 41.9215 164.144 41.9215ZM164.144 35.2431C163.17 35.2431 162.378 35.9516 162.378 36.823C162.378 37.6945 163.17 38.4029 164.144 38.4029C165.119 38.4029 165.91 37.6945 165.91 36.823C165.91 35.9516 165.119 35.2431 164.144 35.2431Z" fill="white"/>
<path d="M164.144 49.8518C158.837 49.8518 153.817 48.6012 150.012 46.3292C145.894 43.8715 143.626 40.4947 143.626 36.8223C143.626 33.1498 145.894 29.7731 150.012 27.3154C153.817 25.0433 158.837 23.7927 164.144 23.7927C169.452 23.7927 174.472 25.0433 178.277 27.3154C182.395 29.7731 184.663 33.1498 184.663 36.8223C184.663 40.4947 182.395 43.8715 178.277 46.3292C174.472 48.6012 169.453 49.8518 164.144 49.8518ZM164.144 27.6328C159.511 27.6328 155.185 28.6927 151.96 30.6179C149.049 32.3562 147.444 34.5604 147.444 36.8223C147.444 39.0841 149.047 41.2883 151.96 43.0266C155.185 44.9518 159.511 46.0117 164.144 46.0117C168.778 46.0117 173.104 44.9518 176.329 43.0266C179.24 41.2883 180.845 39.0841 180.845 36.8223C180.845 34.5604 179.242 32.3562 176.329 30.6179C173.104 28.6927 168.778 27.6328 164.144 27.6328Z" fill="white"/>
</svg>
