<svg width="199" height="152" viewBox="0 0 199 152" fill="none" xmlns="http://www.w3.org/2000/svg">
<g clip-path="url(#clip0_0_72)">
<path d="M2.20987 103.244V81.787C2.20987 79.481 2.40876 78.6464 2.78444 77.8997L23.6568 36.7646C34.4963 15.3955 54.783 2.19623 76.7713 2.19623H92.8482C95.3012 2.19623 97.2901 4.42539 97.2901 7.15967V88.0353C97.2901 90.7805 99.279 92.9987 101.732 92.9987H192.337C194.79 92.9987 196.779 95.2279 196.779 97.9621V103.244C196.779 105.989 194.79 118.288 192.337 118.288H6.65173C4.19876 118.277 2.20987 105.978 2.20987 103.233V103.244Z" stroke="white" stroke-width="4" stroke-linecap="round" stroke-linejoin="round"/>
<path d="M187.951 2.19623H114.516C109.634 2.19623 105.677 6.12934 105.677 10.9811V76.8565C105.677 81.7083 109.634 85.6414 114.516 85.6414H187.951C192.833 85.6414 196.79 81.7083 196.79 76.8565V10.9811C196.79 6.12934 192.833 2.19623 187.951 2.19623Z" stroke="white" stroke-width="4" stroke-linecap="round" stroke-linejoin="round"/>
<path d="M88.2627 10.0366H82.4728V18.9093H88.2627V10.0366Z" stroke="white" stroke-width="4" stroke-linecap="round" stroke-linejoin="round"/>
<path d="M20.5961 87.8379H8.71796V101.081H20.5961V87.8379Z" stroke="white" stroke-width="4" stroke-linecap="round" stroke-linejoin="round"/>
<path d="M2.77325 80.1832H62.1307C65.3793 80.1832 68.009 77.2513 68.009 73.6275V5.00677" stroke="white" stroke-width="4" stroke-linecap="round" stroke-linejoin="round"/>
<path d="M115.798 2.19623V85.6414" stroke="white" stroke-width="4" stroke-linecap="round" stroke-linejoin="round"/>
<path d="M127.433 2.19623V85.6414" stroke="white" stroke-width="4" stroke-linecap="round" stroke-linejoin="round"/>
<path d="M139.057 2.19623V85.6414" stroke="white" stroke-width="4" stroke-linecap="round" stroke-linejoin="round"/>
<path d="M150.692 2.19623V85.6414" stroke="white" stroke-width="4" stroke-linecap="round" stroke-linejoin="round"/>
<path d="M162.316 2.19623V85.6414" stroke="white" stroke-width="4" stroke-linecap="round" stroke-linejoin="round"/>
<path d="M173.951 2.19623V85.6414" stroke="white" stroke-width="4" stroke-linecap="round" stroke-linejoin="round"/>
<path d="M185.586 2.19623V85.6414" stroke="white" stroke-width="4" stroke-linecap="round" stroke-linejoin="round"/>
<path d="M181.509 126.019H175.432C168.823 126.019 163.465 131.343 163.465 137.911C163.465 144.48 168.823 149.804 175.432 149.804H181.509C188.118 149.804 193.475 144.48 193.475 137.911C193.475 131.343 188.118 126.019 181.509 126.019Z" stroke="white" stroke-width="4" stroke-linecap="round" stroke-linejoin="round"/>
<path d="M20.994 126.019H14.9168C8.30785 126.019 2.95026 131.343 2.95026 137.911C2.95026 144.48 8.30785 149.804 14.9168 149.804H20.994C27.6029 149.804 32.9605 144.48 32.9605 137.911C32.9605 131.343 27.6029 126.019 20.994 126.019Z" stroke="white" stroke-width="4" stroke-linecap="round" stroke-linejoin="round"/>
<path d="M20.8945 135.287H15.0052C13.4368 135.287 12.1655 136.55 12.1655 138.109C12.1655 139.667 13.4368 140.931 15.0052 140.931H20.8945C22.4628 140.931 23.7342 139.667 23.7342 138.109C23.7342 136.55 22.4628 135.287 20.8945 135.287Z" stroke="white" stroke-width="4" stroke-linecap="round" stroke-linejoin="round"/>
<path d="M181.409 135.287H175.52C173.952 135.287 172.68 136.55 172.68 138.109C172.68 139.667 173.952 140.931 175.52 140.931H181.409C182.978 140.931 184.249 139.667 184.249 138.109C184.249 136.55 182.978 135.287 181.409 135.287Z" stroke="white" stroke-width="4" stroke-linecap="round" stroke-linejoin="round"/>
</g>
<defs>
<clipPath id="clip0_0_72">
<rect width="199" height="152" fill="white"/>
</clipPath>
</defs>
</svg>
