<svg width="192" height="134" viewBox="0 0 192 134" fill="none" xmlns="http://www.w3.org/2000/svg">
<g clip-path="url(#clip0_0_68)">
<path d="M163.733 125.841C163.733 128.865 161.271 131.312 158.228 131.312H8.20954C5.16643 131.312 2.7049 128.865 2.7049 125.841V8.1593C2.7049 5.13492 5.16643 2.68854 8.20954 2.68854H71.1546C74.1977 2.68854 76.6592 5.13492 76.6592 8.1593V14.0199C76.6592 17.0442 79.1208 19.4906 82.1639 19.4906H158.242C161.285 19.4906 163.746 21.937 163.746 24.9614V40.0429" stroke="white" stroke-width="4" stroke-miterlimit="10" stroke-linecap="round"/>
<path d="M159.635 131.312H10.0897C6.41091 131.312 3.76002 127.79 4.81497 124.282L28.957 43.941C29.6467 41.6291 31.7972 40.043 34.2317 40.043H183.777C187.456 40.043 190.107 43.5647 189.052 47.073L164.91 127.414C164.22 129.726 162.069 131.312 159.635 131.312Z" stroke="white" stroke-width="4" stroke-miterlimit="10" stroke-linecap="round"/>
</g>
<defs>
<clipPath id="clip0_0_68">
<rect width="192" height="134" fill="white"/>
</clipPath>
</defs>
</svg>
