<svg width="121" height="200" viewBox="0 0 121 200" fill="none" xmlns="http://www.w3.org/2000/svg">
<g clip-path="url(#clip0_0_58)">
<path d="M64.6413 200C54.1615 200 43.2118 197.634 33.0609 192.926C17.5879 185.745 6.68518 174.192 3.13708 161.228C-5.02824 131.322 2.64364 108.919 26.5639 92.7172C39.3934 84.0309 52.6694 75.0459 49.7793 58.7486C49.4268 56.7413 49.9672 54.6743 51.2713 53.0852C52.6694 51.3886 54.7372 50.4208 56.9577 50.4208H86.3646C90.0184 50.4208 93.1201 53.0733 93.59 56.586L93.8602 58.6172C95.0234 67.1721 96.022 74.556 93.5078 81.94C90.8291 89.8258 84.4378 96.923 72.7831 104.952C63.7719 111.703 58.7317 116.829 55.4656 122.623C54.091 125.061 47.547 137.642 54.138 145.444C57.6744 149.626 64.7235 153.904 71.8667 153.426C79.6326 152.888 81.6299 149.459 84.7903 142.911C87.6334 137.021 91.7925 132.015 96.8444 128.454L107.395 120.998C111.131 118.358 116.359 119.063 119.038 122.588C119.707 123.46 120.095 124.356 120.212 125.228C122.468 143.246 114.174 182.926 90.2651 194.515C82.6755 198.195 73.8288 200.024 64.6296 200.024L64.6413 200ZM56.9812 55.2C56.1588 55.2 55.3951 55.5465 54.9017 56.1559C54.655 56.4546 54.279 57.0639 54.42 57.9003C57.8623 77.2922 42.6243 87.6034 29.1839 96.6959C7.16687 111.607 0.129426 132.289 7.68381 159.949C10.856 171.551 20.8188 181.994 35.0229 188.577C52.8339 196.845 73.2413 197.455 88.2561 190.178C108.299 180.476 117.968 145.026 115.572 125.826C115.572 125.826 115.501 125.694 115.349 125.491C114.197 123.974 111.8 123.711 110.109 124.906L99.5583 132.361C95.1643 135.468 91.534 139.829 89.0433 145.002C85.9651 151.395 83.0515 157.44 72.2192 158.181C63.4312 158.802 55.0309 153.784 50.6134 148.551C43.9167 140.617 46.6424 128.729 51.4358 120.246C55.0544 113.842 60.4588 108.286 70.1162 101.057C92.7911 85.4288 91.534 76.1332 89.243 59.2863L88.9728 57.2432C88.8201 56.0842 87.7157 55.212 86.3998 55.212H56.9929L56.9812 55.2Z" fill="white"/>
<path d="M69.6223 84.0555C63.0078 84.0555 57.627 78.5832 57.627 71.8564C57.627 65.1296 63.0078 59.6573 69.6223 59.6573C76.2368 59.6573 81.6177 65.1296 81.6177 71.8564C81.6177 78.5832 76.2368 84.0555 69.6223 84.0555ZM69.6223 64.4366C65.6043 64.4366 62.3264 67.7701 62.3264 71.8564C62.3264 75.9427 65.6043 79.2762 69.6223 79.2762C73.6404 79.2762 76.9183 75.9427 76.9183 71.8564C76.9183 67.7701 73.6404 64.4366 69.6223 64.4366Z" fill="white"/>
<path d="M73.4056 78.0931C72.8064 78.0931 72.2073 77.8542 71.7491 77.3882L64.1829 69.6936C63.2665 68.7616 63.2665 67.2442 64.1829 66.3122C65.0993 65.3803 66.5914 65.3803 67.5078 66.3122L75.0739 74.0069C75.9903 74.9388 75.9903 76.4562 75.0739 77.3882C74.6157 77.8542 74.0166 78.0931 73.4174 78.0931H73.4056Z" fill="white"/>
<path d="M65.8395 78.0931C65.2403 78.0931 64.6411 77.8542 64.1829 77.3882C63.2665 76.4562 63.2665 74.9388 64.1829 74.0069L71.7491 66.3122C72.6655 65.3803 74.1575 65.3803 75.0739 66.3122C75.9903 67.2442 75.9903 68.7616 75.0739 69.6936L67.5078 77.3882C67.0496 77.8542 66.4504 78.0931 65.8512 78.0931H65.8395Z" fill="white"/>
<path d="M89.3603 126.65C88.1855 126.65 87.0224 126.268 86.0355 125.527C79.9849 120.939 76.9185 116.637 76.9185 112.73V96.8633C76.9185 96.242 77.1535 95.6446 77.5764 95.2025L86.5054 85.8112L90.4882 77.7104C90.9699 76.7187 92.0743 76.193 93.1317 76.4558C94.189 76.7068 94.941 77.6746 94.941 78.7857V121.034C94.941 123.173 93.7661 125.085 91.8746 126.053C91.0756 126.459 90.218 126.662 89.3603 126.662V126.65ZM81.618 97.8311V112.73C81.618 114.941 84.2497 118.203 88.8434 121.692C89.2194 121.978 89.5836 121.859 89.7598 121.763C89.936 121.68 90.2298 121.465 90.2298 121.022V88.7505C90.2298 88.7505 90.1593 88.8222 90.124 88.858L81.6062 97.8191L81.618 97.8311Z" fill="white"/>
<path d="M90.1475 48.7365H56.652C50.4957 48.7365 45.4791 43.6346 45.4791 37.3738V11.3627C45.4791 5.08991 50.4957 0 56.652 0H90.1475C96.3038 0 101.32 5.10186 101.32 11.3627V37.3618C101.32 43.6346 96.3038 48.7245 90.1475 48.7245V48.7365ZM56.652 4.77926C53.0804 4.77926 50.1785 7.73045 50.1785 11.3627V37.3618C50.1785 40.9941 53.0804 43.9453 56.652 43.9453H90.1475C93.7191 43.9453 96.621 40.9941 96.621 37.3618V11.3627C96.621 7.73045 93.7191 4.77926 90.1475 4.77926H56.652Z" fill="white"/>
<path d="M44.7034 33.1682H43.364C40.3446 33.1682 37.8892 30.671 37.8892 27.6003V21.686C37.8892 18.6153 40.3446 16.1182 43.364 16.1182H44.7034C47.7228 16.1182 50.1783 18.6153 50.1783 21.686V27.6003C50.1783 30.671 47.7228 33.1682 44.7034 33.1682ZM43.364 20.9094C42.9411 20.9094 42.5886 21.2559 42.5886 21.6979V27.6123C42.5886 28.0424 42.9293 28.4009 43.364 28.4009H44.7034C45.1263 28.4009 45.4788 28.0544 45.4788 27.6123V21.6979C45.4788 21.2678 45.1381 20.9094 44.7034 20.9094H43.364Z" fill="white"/>
<path d="M103.423 33.1682H102.084C99.0644 33.1682 96.6089 30.671 96.6089 27.6003V21.686C96.6089 18.6153 99.0644 16.1182 102.084 16.1182H103.423C106.443 16.1182 108.898 18.6153 108.898 21.686V27.6003C108.898 30.671 106.443 33.1682 103.423 33.1682ZM102.084 20.9094C101.661 20.9094 101.308 21.2559 101.308 21.6979V27.6123C101.308 28.0424 101.649 28.4009 102.084 28.4009H103.423C103.846 28.4009 104.199 28.0544 104.199 27.6123V21.6979C104.199 21.2678 103.858 20.9094 103.423 20.9094H102.084Z" fill="white"/>
</g>
<defs>
<clipPath id="clip0_0_58">
<rect width="120.588" height="200" fill="white"/>
</clipPath>
</defs>
</svg>
